<?xml version="1.0" encoding="utf-8"?>
<!-- Generator: Adobe Illustrator 23.0.3, SVG Export Plug-In . SVG Version: 6.00 Build 0)  -->
<svg version="1.1" id="Layer_1" xmlns="http://www.w3.org/2000/svg" xmlns:xlink="http://www.w3.org/1999/xlink" x="0px" y="0px"
	 viewBox="0 0 288 288" style="enable-background:new 0 0 288 288;" xml:space="preserve">
<style type="text/css">
	.st0{display:none;fill:#242424;}
	.st1{display:none;fill:url(#SVGID_1_);}
	.st2{fill:url(#SVGID_2_);}
	.st3{fill:url(#SVGID_3_);}
	.st4{fill:url(#SVGID_4_);}
	.st5{fill:url(#SVGID_5_);}
	.st6{fill:url(#SVGID_6_);}
	.st7{fill:url(#SVGID_7_);}
	.st8{fill:url(#SVGID_8_);}
	.st9{display:none;}
	.st10{display:inline;}
	.st11{fill:#FBE587;}
	.st12{fill:#B71210;}
	.st13{fill:url(#SVGID_9_);}
	.st14{fill:url(#SVGID_10_);}
	.st15{fill:url(#SVGID_11_);}
	.st16{fill:url(#SVGID_12_);}
	.st17{fill:url(#SVGID_13_);}
	.st18{fill:url(#SVGID_14_);}
	.st19{fill:url(#SVGID_15_);}
	.st20{fill:url(#SVGID_16_);}
	.st21{fill:url(#SVGID_17_);}
	.st22{fill:url(#SVGID_18_);}
	.st23{display:inline;fill:url(#SVGID_19_);}
	.st24{display:inline;fill:url(#SVGID_20_);}
	.st25{display:inline;fill:url(#SVGID_21_);}
	.st26{display:inline;fill:url(#SVGID_22_);}
	.st27{display:inline;fill:url(#SVGID_23_);}
</style>
<g>
	<rect x="0" y="0" class="st0" width="288" height="288"/>
	
		<radialGradient id="SVGID_1_" cx="-29.8033" cy="191.6314" r="105.0246" gradientTransform="matrix(1.1511 0 0 0.9926 178.3066 -9.7685)" gradientUnits="userSpaceOnUse">
		<stop  offset="0.685" style="stop-color:#242424"/>
		<stop  offset="0.7164" style="stop-color:#3E3E3E"/>
		<stop  offset="0.8199" style="stop-color:#909090"/>
		<stop  offset="0.9049" style="stop-color:#CCCCCC"/>
		<stop  offset="0.9671" style="stop-color:#F1F1F1"/>
		<stop  offset="1" style="stop-color:#FFFFFF"/>
	</radialGradient>
	<ellipse class="st1" cx="144" cy="180.44" rx="120.9" ry="104.24"/>
	<g>
		<linearGradient id="SVGID_2_" gradientUnits="userSpaceOnUse" x1="144" y1="41.9015" x2="144" y2="249.021">
			<stop  offset="0" style="stop-color:#FBF89C"/>
			<stop  offset="0.0326" style="stop-color:#F9F498"/>
			<stop  offset="0.0681" style="stop-color:#F5EA8B"/>
			<stop  offset="0.1048" style="stop-color:#EED875"/>
			<stop  offset="0.1422" style="stop-color:#E3BF57"/>
			<stop  offset="0.1758" style="stop-color:#D8A335"/>
			<stop  offset="0.2232" style="stop-color:#CA9430"/>
			<stop  offset="0.314" style="stop-color:#A56D22"/>
			<stop  offset="0.3226" style="stop-color:#A16921"/>
			<stop  offset="0.3673" style="stop-color:#AA7324"/>
			<stop  offset="0.4421" style="stop-color:#C38C2D"/>
			<stop  offset="0.4957" style="stop-color:#D8A335"/>
			<stop  offset="0.564" style="stop-color:#E5C15A"/>
			<stop  offset="0.6426" style="stop-color:#F1DF7E"/>
			<stop  offset="0.7067" style="stop-color:#F8F194"/>
			<stop  offset="0.7478" style="stop-color:#FBF89C"/>
			<stop  offset="0.8083" style="stop-color:#FBF89C"/>
			<stop  offset="0.8256" style="stop-color:#F8F194"/>
			<stop  offset="0.8526" style="stop-color:#F1DF7E"/>
			<stop  offset="0.8856" style="stop-color:#E5C25A"/>
			<stop  offset="0.9145" style="stop-color:#D8A335"/>
			<stop  offset="0.9516" style="stop-color:#D9A738"/>
			<stop  offset="0.9853" style="stop-color:#DBB242"/>
			<stop  offset="1" style="stop-color:#DCB949"/>
		</linearGradient>
		<circle class="st2" cx="144" cy="144" r="114.24"/>
		<linearGradient id="SVGID_3_" gradientUnits="userSpaceOnUse" x1="67.5807" y1="67.5807" x2="210.3293" y2="210.3292">
			<stop  offset="0" style="stop-color:#FBF89C"/>
			<stop  offset="0.0326" style="stop-color:#F9F498"/>
			<stop  offset="0.0681" style="stop-color:#F5EA8B"/>
			<stop  offset="0.1048" style="stop-color:#EED875"/>
			<stop  offset="0.1422" style="stop-color:#E3BF57"/>
			<stop  offset="0.1758" style="stop-color:#D8A335"/>
			<stop  offset="0.2232" style="stop-color:#CA9430"/>
			<stop  offset="0.314" style="stop-color:#A56D22"/>
			<stop  offset="0.3226" style="stop-color:#A16921"/>
			<stop  offset="0.3673" style="stop-color:#AA7324"/>
			<stop  offset="0.4421" style="stop-color:#C38C2D"/>
			<stop  offset="0.4957" style="stop-color:#D8A335"/>
			<stop  offset="0.564" style="stop-color:#E5C15A"/>
			<stop  offset="0.6426" style="stop-color:#F1DF7E"/>
			<stop  offset="0.7067" style="stop-color:#F8F194"/>
			<stop  offset="0.7478" style="stop-color:#FBF89C"/>
			<stop  offset="0.8083" style="stop-color:#FBF89C"/>
			<stop  offset="0.8256" style="stop-color:#F8F194"/>
			<stop  offset="0.8526" style="stop-color:#F1DF7E"/>
			<stop  offset="0.8856" style="stop-color:#E5C25A"/>
			<stop  offset="0.9145" style="stop-color:#D8A335"/>
			<stop  offset="0.9516" style="stop-color:#D9A738"/>
			<stop  offset="0.9853" style="stop-color:#DBB242"/>
			<stop  offset="1" style="stop-color:#DCB949"/>
		</linearGradient>
		<circle class="st3" cx="144" cy="144" r="112.32"/>
		<radialGradient id="SVGID_4_" cx="161.7637" cy="104.6928" r="149.7813" gradientUnits="userSpaceOnUse">
			<stop  offset="0" style="stop-color:#FF6F50"/>
			<stop  offset="0.1654" style="stop-color:#E9523C"/>
			<stop  offset="0.4067" style="stop-color:#CD2F24"/>
			<stop  offset="0.6334" style="stop-color:#B91512"/>
			<stop  offset="0.8377" style="stop-color:#AD0508"/>
			<stop  offset="1" style="stop-color:#A90004"/>
		</radialGradient>
		<circle class="st4" cx="144" cy="144" r="110.27"/>
		<radialGradient id="SVGID_5_" cx="144" cy="144" r="101.6693" gradientUnits="userSpaceOnUse">
			<stop  offset="0.5905" style="stop-color:#333333"/>
			<stop  offset="0.6964" style="stop-color:#2D2D2D"/>
			<stop  offset="0.8321" style="stop-color:#1D1D1D"/>
			<stop  offset="0.9834" style="stop-color:#030303"/>
			<stop  offset="1" style="stop-color:#000000"/>
		</radialGradient>
		<circle class="st5" cx="144" cy="144" r="101.67"/>
		<radialGradient id="SVGID_6_" cx="144" cy="144" r="101.3387" gradientUnits="userSpaceOnUse">
			<stop  offset="0.477" style="stop-color:#FFF3A6"/>
			<stop  offset="0.7809" style="stop-color:#F9DF7B"/>
			<stop  offset="0.8092" style="stop-color:#F6DB77"/>
			<stop  offset="0.8397" style="stop-color:#EECF6A"/>
			<stop  offset="0.8712" style="stop-color:#E0BC54"/>
			<stop  offset="0.9034" style="stop-color:#CDA036"/>
			<stop  offset="0.9356" style="stop-color:#B57E10"/>
			<stop  offset="0.9792" style="stop-color:#E5C35C"/>
			<stop  offset="1" style="stop-color:#F9DF7B"/>
		</radialGradient>
		<circle class="st6" cx="144" cy="144" r="98.65"/>
		<radialGradient id="SVGID_7_" cx="144" cy="143.9999" r="98.9291" gradientUnits="userSpaceOnUse">
			<stop  offset="0.5905" style="stop-color:#333333"/>
			<stop  offset="0.6964" style="stop-color:#2D2D2D"/>
			<stop  offset="0.8321" style="stop-color:#1D1D1D"/>
			<stop  offset="0.9834" style="stop-color:#030303"/>
			<stop  offset="1" style="stop-color:#000000"/>
		</radialGradient>
		<path class="st7" d="M88.28,225.75L144,144l-81.75,55.72C69.22,209.93,78.07,218.78,88.28,225.75z M225.75,199.72L144,144
			l55.72,81.75C209.93,218.78,218.78,209.93,225.75,199.72z M144,242.93c6.29,0,12.44-0.59,18.41-1.72L144,144l-18.41,97.21
			C131.56,242.33,137.71,242.93,144,242.93z M242.93,144c0-6.29-0.59-12.44-1.72-18.41L144,144l97.21,18.41
			C242.33,156.44,242.93,150.29,242.93,144z M199.72,62.25L144,144l81.75-55.72C218.78,78.07,209.93,69.22,199.72,62.25z M45.07,144
			c0,6.29,0.59,12.44,1.72,18.41L144,144l-97.21-18.41C45.67,131.56,45.07,137.71,45.07,144z M144,45.07
			c-6.29,0-12.44,0.59-18.41,1.72L144,144l18.41-97.21C156.44,45.67,150.29,45.07,144,45.07z M62.25,88.28L144,144L88.28,62.25
			C78.07,69.22,69.22,78.07,62.25,88.28z"/>
		<radialGradient id="SVGID_8_" cx="139.0867" cy="150.0472" r="23.0551" gradientUnits="userSpaceOnUse">
			<stop  offset="0.2543" style="stop-color:#BE8B1E"/>
			<stop  offset="1" style="stop-color:#FFFFFF"/>
		</radialGradient>
		<circle class="st8" cx="139.09" cy="150.05" r="23.06"/>
		<g class="st9">
			<g class="st10">
				<path class="st11" d="M145.43,70.11v2.71h-1.32l-5.5-2.32v-1.97h5.53v-0.87h1.29v0.87h2.09v1.58H145.43z M144.14,70.11h-3.78
					l3.78,1.36V70.11z"/>
				<path class="st11" d="M146.97,66.24c-0.47,0.41-1.09,0.61-1.88,0.61h-3.99c-0.81,0-1.45-0.2-1.92-0.59
					c-0.47-0.4-0.7-0.99-0.7-1.79c0-0.79,0.23-1.39,0.7-1.78s1.11-0.59,1.92-0.59h3.99c0.78,0,1.4,0.21,1.87,0.62
					c0.47,0.41,0.7,1,0.7,1.76C147.67,65.24,147.44,65.83,146.97,66.24z M145.07,63.82h-3.93c-0.33,0-0.6,0.04-0.83,0.13
					c-0.22,0.08-0.33,0.26-0.33,0.52c0,0.28,0.11,0.46,0.32,0.54c0.22,0.08,0.49,0.12,0.83,0.12h3.93c0.74,0,1.11-0.22,1.11-0.66
					C146.18,64.03,145.81,63.82,145.07,63.82z"/>
				<path class="st11" d="M146.97,60.27c-0.47,0.41-1.09,0.61-1.88,0.61h-3.99c-0.81,0-1.45-0.2-1.92-0.59s-0.7-0.99-0.7-1.79
					c0-0.79,0.23-1.39,0.7-1.78s1.11-0.59,1.92-0.59h3.99c0.78,0,1.4,0.21,1.87,0.62c0.47,0.41,0.7,1,0.7,1.76
					C147.67,59.27,147.44,59.86,146.97,60.27z M145.07,57.84h-3.93c-0.33,0-0.6,0.04-0.83,0.13c-0.22,0.08-0.33,0.26-0.33,0.52
					c0,0.28,0.11,0.46,0.32,0.54c0.22,0.08,0.49,0.12,0.83,0.12h3.93c0.74,0,1.11-0.22,1.11-0.66
					C146.18,58.06,145.81,57.84,145.07,57.84z"/>
			</g>
			<g class="st10">
				<path class="st11" d="M142.29,218.26v-2.71h1.32l5.5,2.32v1.97h-5.53v0.87h-1.29v-0.87h-2.09v-1.58H142.29z M143.58,218.26h3.78
					l-3.78-1.36V218.26z"/>
				<path class="st11" d="M140.74,222.13c0.47-0.41,1.09-0.61,1.88-0.61h3.99c0.81,0,1.45,0.2,1.92,0.59c0.47,0.4,0.7,0.99,0.7,1.79
					c0,0.79-0.23,1.39-0.7,1.78c-0.47,0.4-1.11,0.59-1.92,0.59h-3.99c-0.78,0-1.4-0.21-1.87-0.62c-0.47-0.41-0.7-1-0.7-1.76
					C140.04,223.13,140.28,222.53,140.74,222.13z M142.65,224.55h3.93c0.33,0,0.6-0.04,0.83-0.13c0.22-0.08,0.33-0.26,0.33-0.52
					c0-0.28-0.11-0.46-0.32-0.54c-0.22-0.08-0.49-0.12-0.83-0.12h-3.93c-0.74,0-1.11,0.22-1.11,0.66
					C141.54,224.34,141.91,224.55,142.65,224.55z"/>
				<path class="st11" d="M140.74,228.1c0.47-0.41,1.09-0.61,1.88-0.61h3.99c0.81,0,1.45,0.2,1.92,0.59c0.47,0.4,0.7,0.99,0.7,1.79
					c0,0.79-0.23,1.39-0.7,1.78c-0.47,0.4-1.11,0.59-1.92,0.59h-3.99c-0.78,0-1.4-0.21-1.87-0.62c-0.47-0.41-0.7-1-0.7-1.76
					C140.04,229.1,140.28,228.51,140.74,228.1z M142.65,230.52h3.93c0.33,0,0.6-0.04,0.83-0.13c0.22-0.08,0.33-0.26,0.33-0.52
					c0-0.28-0.11-0.46-0.32-0.54c-0.22-0.08-0.49-0.12-0.83-0.12h-3.93c-0.74,0-1.11,0.22-1.11,0.66
					C141.54,230.31,141.91,230.52,142.65,230.52z"/>
			</g>
			<g class="st10">
				<path class="st11" d="M193.83,146.8c0.3,0,0.53-0.03,0.68-0.08c0.15-0.05,0.26-0.15,0.33-0.29c0.07-0.14,0.1-0.35,0.1-0.64
					v-6.86h1.82v6.94c0,0.51-0.06,0.92-0.18,1.24c-0.12,0.32-0.33,0.56-0.63,0.71c-0.3,0.16-0.71,0.24-1.23,0.24h-0.88V146.8z"/>
				<path class="st11" d="M199.39,138.93h2.01l1.72,8.91h-1.67l-0.33-1.96h-1.41l-0.34,1.96h-1.71L199.39,138.93z M200.94,144.76
					l-0.54-3.59l-0.53,3.59H200.94z"/>
				<path class="st11" d="M204.36,147.2c-0.4-0.51-0.59-1.24-0.59-2.21v-3.19c0-0.98,0.2-1.73,0.59-2.23
					c0.39-0.5,1.06-0.75,2.02-0.75c0.91,0,1.55,0.22,1.93,0.67c0.38,0.44,0.57,1.08,0.57,1.91v0.75h-1.76v-0.82
					c0-0.26-0.01-0.48-0.04-0.64c-0.03-0.16-0.09-0.29-0.2-0.4c-0.11-0.11-0.27-0.16-0.49-0.16c-0.33,0-0.54,0.11-0.64,0.32
					c-0.1,0.21-0.14,0.52-0.14,0.93v4.05c0,0.42,0.06,0.73,0.16,0.94c0.11,0.21,0.32,0.31,0.62,0.31c0.31,0,0.51-0.1,0.59-0.31
					s0.13-0.52,0.13-0.93v-0.87h1.76v0.74c0,0.85-0.19,1.51-0.56,1.97c-0.37,0.47-1.02,0.7-1.94,0.7
					C205.43,147.97,204.76,147.71,204.36,147.2z"/>
				<path class="st11" d="M209.98,138.93h1.8v3.76l1.62-3.76h1.76l-1.67,4l1.8,4.91h-1.84l-1.38-3.98l-0.3,0.48v3.5h-1.8V138.93z"/>
				<path class="st11" d="M216.05,138.93h2.83c1.54,0,2.31,0.85,2.31,2.56c0,0.9-0.22,1.54-0.66,1.92
					c-0.44,0.38-1.05,0.57-1.84,0.57h-0.84v3.86h-1.8V138.93z M218.51,142.71c0.39,0,0.65-0.09,0.78-0.27
					c0.13-0.18,0.2-0.51,0.2-0.97c0-0.3-0.02-0.54-0.07-0.71c-0.04-0.17-0.14-0.31-0.28-0.4c-0.14-0.1-0.36-0.14-0.64-0.14h-0.64
					v2.5H218.51z"/>
				<path class="st11" d="M222.59,147.22c-0.4-0.5-0.61-1.22-0.61-2.18v-3.32c0-0.96,0.2-1.68,0.61-2.17
					c0.4-0.48,1.08-0.73,2.02-0.73c0.94,0,1.61,0.24,2.02,0.73c0.41,0.49,0.61,1.21,0.61,2.16v3.33c0,0.95-0.2,1.68-0.61,2.17
					c-0.41,0.5-1.08,0.74-2.02,0.74C223.66,147.97,222.99,147.72,222.59,147.22z M225.23,146.35c0.11-0.21,0.16-0.5,0.16-0.86v-4.21
					c0-0.37-0.05-0.65-0.16-0.85c-0.11-0.2-0.31-0.3-0.62-0.3s-0.52,0.1-0.62,0.3c-0.11,0.2-0.16,0.49-0.16,0.85v4.21
					c0,0.37,0.05,0.66,0.15,0.87c0.1,0.21,0.31,0.31,0.63,0.31C224.92,146.67,225.13,146.56,225.23,146.35z"/>
				<path class="st11" d="M229.22,140.28h-1.38v-1.34h4.55v1.34h-1.35v7.57h-1.83V140.28z"/>
			</g>
			<g class="st10">
				<path class="st11" d="M93.88,141.57c-0.3,0-0.53,0.03-0.68,0.08c-0.15,0.05-0.26,0.15-0.33,0.29c-0.07,0.14-0.1,0.35-0.1,0.64
					v6.86h-1.81v-6.94c0-0.51,0.06-0.92,0.18-1.24c0.12-0.32,0.33-0.56,0.63-0.71c0.3-0.16,0.71-0.24,1.23-0.24h0.88V141.57z"/>
				<path class="st11" d="M88.33,149.43h-2.01l-1.72-8.91h1.67l0.33,1.96h1.41l0.34-1.96h1.71L88.33,149.43z M86.78,143.6l0.54,3.59
					l0.53-3.59H86.78z"/>
				<path class="st11" d="M83.36,141.17c0.4,0.51,0.59,1.24,0.59,2.21v3.19c0,0.98-0.2,1.73-0.59,2.23
					c-0.39,0.5-1.07,0.75-2.02,0.75c-0.91,0-1.55-0.22-1.93-0.67c-0.38-0.44-0.57-1.08-0.57-1.91v-0.75h1.76v0.82
					c0,0.26,0.01,0.48,0.04,0.64c0.03,0.16,0.09,0.29,0.2,0.4c0.11,0.11,0.27,0.16,0.49,0.16c0.33,0,0.54-0.11,0.64-0.32
					c0.1-0.21,0.14-0.52,0.14-0.93v-4.05c0-0.42-0.06-0.73-0.17-0.93c-0.11-0.21-0.32-0.31-0.62-0.31c-0.31,0-0.51,0.1-0.59,0.31
					c-0.09,0.21-0.13,0.52-0.13,0.93v0.87h-1.76v-0.74c0-0.85,0.19-1.51,0.56-1.97c0.37-0.47,1.02-0.7,1.94-0.7
					C82.29,140.4,82.96,140.66,83.36,141.17z"/>
				<path class="st11" d="M77.74,149.43h-1.8v-3.76l-1.62,3.76h-1.76l1.67-4l-1.8-4.91h1.84l1.38,3.98l0.3-0.48v-3.5h1.8V149.43z"/>
				<path class="st11" d="M71.66,149.43h-2.83c-1.54,0-2.31-0.85-2.31-2.56c0-0.9,0.22-1.54,0.66-1.92
					c0.44-0.38,1.05-0.57,1.84-0.57h0.84v-3.86h1.8V149.43z M69.21,145.66c-0.39,0-0.65,0.09-0.78,0.27
					c-0.13,0.18-0.2,0.51-0.2,0.97c0,0.3,0.02,0.54,0.07,0.71c0.04,0.17,0.14,0.31,0.28,0.4c0.14,0.1,0.36,0.14,0.64,0.14h0.64v-2.5
					H69.21z"/>
				<path class="st11" d="M65.13,141.15c0.4,0.5,0.6,1.22,0.6,2.18v3.32c0,0.96-0.2,1.68-0.6,2.17c-0.4,0.48-1.08,0.73-2.02,0.73
					c-0.94,0-1.61-0.24-2.02-0.73c-0.41-0.49-0.61-1.21-0.61-2.16v-3.33c0-0.95,0.2-1.68,0.61-2.17c0.41-0.5,1.08-0.74,2.02-0.74
					C64.05,140.4,64.73,140.65,65.13,141.15z M62.48,142.01c-0.11,0.21-0.16,0.5-0.16,0.86v4.21c0,0.37,0.05,0.65,0.16,0.85
					c0.11,0.2,0.31,0.3,0.62,0.3c0.31,0,0.52-0.1,0.62-0.3c0.11-0.2,0.16-0.49,0.16-0.85v-4.21c0-0.37-0.05-0.66-0.15-0.87
					c-0.1-0.21-0.31-0.31-0.63-0.31C62.8,141.7,62.59,141.81,62.48,142.01z"/>
				<path class="st11" d="M58.5,148.09h1.38v1.34h-4.55v-1.34h1.35v-7.57h1.83V148.09z"/>
			</g>
			<g class="st10">
				<path class="st11" d="M201.29,91.36c-0.51-0.02-1.04-0.3-1.58-0.84l-0.09-0.09l1.14-1.14c0.29,0.29,0.52,0.46,0.7,0.52
					c0.18,0.06,0.36,0,0.55-0.19c0.13-0.13,0.19-0.27,0.18-0.41c-0.01-0.14-0.1-0.32-0.25-0.52c-0.15-0.2-0.4-0.48-0.73-0.81
					l-0.64-0.64c0.05,0.18,0.03,0.38-0.05,0.59c-0.08,0.21-0.22,0.41-0.41,0.6c-0.47,0.47-0.98,0.63-1.53,0.51
					c-0.56-0.13-1.12-0.48-1.68-1.04c-1.42-1.42-1.56-2.69-0.43-3.82c0.58-0.58,1.18-0.82,1.82-0.74c0.63,0.08,1.27,0.43,1.89,1.06
					l2.29,2.29c0.68,0.68,1.08,1.33,1.21,1.96c0.13,0.63-0.13,1.26-0.76,1.89C202.34,91.11,201.8,91.38,201.29,91.36z M199.71,86.39
					l-1-1c-0.27-0.27-0.53-0.46-0.75-0.55c-0.23-0.09-0.43-0.05-0.61,0.12c-0.19,0.19-0.22,0.4-0.11,0.63
					c0.11,0.24,0.36,0.54,0.74,0.92c0.27,0.27,0.48,0.47,0.64,0.59c0.16,0.13,0.32,0.2,0.48,0.22c0.16,0.02,0.31-0.05,0.45-0.19
					C199.73,86.95,199.79,86.7,199.71,86.39z"/>
				<path class="st11" d="M205.43,87.08c-0.62-0.04-1.2-0.34-1.76-0.89l-2.82-2.82c-0.58-0.58-0.89-1.17-0.94-1.78
					c-0.05-0.61,0.21-1.2,0.77-1.76c0.56-0.56,1.15-0.81,1.75-0.77c0.61,0.05,1.2,0.36,1.78,0.94l2.82,2.82
					c0.55,0.55,0.84,1.14,0.89,1.76c0.04,0.62-0.21,1.2-0.75,1.74C206.63,86.87,206.04,87.12,205.43,87.08z M205.79,84.01
					l-2.78-2.78c-0.23-0.23-0.46-0.4-0.67-0.49c-0.22-0.1-0.42-0.05-0.6,0.14c-0.2,0.2-0.25,0.4-0.15,0.61
					c0.1,0.21,0.26,0.44,0.5,0.67l2.78,2.78c0.52,0.52,0.94,0.63,1.25,0.32C206.43,84.95,206.32,84.54,205.79,84.01z"/>
			</g>
			<g class="st10">
				<path class="st11" d="M86.49,197.07c0.51,0.02,1.04,0.3,1.58,0.84l0.09,0.09l-1.14,1.14c-0.29-0.29-0.52-0.46-0.7-0.52
					c-0.18-0.06-0.36,0-0.55,0.19c-0.13,0.13-0.19,0.27-0.18,0.41c0.01,0.14,0.1,0.32,0.25,0.52s0.4,0.48,0.73,0.81l0.64,0.64
					c-0.05-0.18-0.03-0.38,0.05-0.59c0.08-0.21,0.22-0.41,0.41-0.6c0.47-0.47,0.98-0.63,1.53-0.51c0.56,0.13,1.12,0.48,1.68,1.04
					c1.42,1.42,1.56,2.69,0.43,3.82c-0.58,0.58-1.18,0.82-1.82,0.74c-0.64-0.08-1.27-0.43-1.89-1.06l-2.29-2.29
					c-0.68-0.68-1.08-1.33-1.21-1.96c-0.13-0.63,0.13-1.26,0.76-1.89C85.43,197.32,85.97,197.05,86.49,197.07z M88.07,202.03l1,1
					c0.27,0.27,0.53,0.46,0.75,0.55c0.23,0.09,0.43,0.05,0.61-0.12c0.19-0.19,0.22-0.4,0.11-0.63c-0.11-0.24-0.36-0.54-0.73-0.92
					c-0.27-0.27-0.48-0.47-0.64-0.59c-0.16-0.13-0.32-0.2-0.48-0.22c-0.16-0.02-0.31,0.05-0.45,0.19
					C88.04,201.48,87.99,201.73,88.07,202.03z"/>
				<path class="st11" d="M82.35,201.35c0.62,0.04,1.2,0.34,1.76,0.89l2.82,2.82c0.58,0.58,0.89,1.17,0.94,1.78
					c0.05,0.61-0.21,1.2-0.77,1.76c-0.56,0.56-1.14,0.81-1.75,0.77c-0.61-0.05-1.2-0.36-1.78-0.94l-2.82-2.82
					c-0.55-0.55-0.84-1.14-0.89-1.76c-0.04-0.62,0.21-1.2,0.75-1.74C81.15,201.56,81.73,201.31,82.35,201.35z M81.98,204.41
					l2.78,2.78c0.23,0.23,0.46,0.4,0.67,0.49c0.22,0.1,0.42,0.05,0.6-0.14c0.2-0.2,0.25-0.4,0.15-0.61c-0.1-0.21-0.26-0.43-0.5-0.67
					l-2.78-2.78c-0.52-0.52-0.94-0.63-1.25-0.32C81.35,203.47,81.46,203.89,81.98,204.41z"/>
			</g>
			<g class="st10">
				<path class="st11" d="M197.01,200.82l3.89-0.82l0.3-0.06c0.48-0.1,0.86-0.21,1.14-0.31c0.29-0.1,0.54-0.27,0.77-0.5
					c0.2-0.2,0.32-0.4,0.35-0.58c0.03-0.18-0.03-0.35-0.18-0.5c-0.21-0.21-0.44-0.28-0.69-0.19c-0.25,0.08-0.52,0.27-0.81,0.56
					l-0.29,0.29l-1.17-1.17l0.31-0.31c0.59-0.59,1.2-0.92,1.82-0.99c0.62-0.07,1.23,0.19,1.82,0.79c0.54,0.54,0.81,1.1,0.81,1.68
					c0,0.57-0.27,1.12-0.8,1.65c-0.32,0.32-0.67,0.55-1.05,0.69c-0.38,0.14-0.88,0.27-1.51,0.39l-0.22,0.05l-3.03,0.61l1.87,1.87
					l-0.95,0.95l-3.22-3.22L197.01,200.82z"/>
				<path class="st11" d="M201.02,205.75c0.04-0.62,0.34-1.2,0.89-1.76l2.82-2.82c0.58-0.58,1.17-0.89,1.78-0.94
					c0.61-0.05,1.2,0.21,1.76,0.77c0.56,0.56,0.81,1.14,0.77,1.75c-0.05,0.61-0.36,1.2-0.94,1.78l-2.82,2.82
					c-0.55,0.55-1.14,0.85-1.76,0.89c-0.62,0.04-1.2-0.21-1.74-0.75C201.23,206.95,200.98,206.37,201.02,205.75z M204.09,206.12
					l2.78-2.78c0.23-0.23,0.4-0.46,0.49-0.67c0.1-0.22,0.05-0.42-0.14-0.6c-0.2-0.2-0.4-0.25-0.61-0.15
					c-0.21,0.1-0.43,0.26-0.67,0.5l-2.78,2.78c-0.52,0.52-0.63,0.94-0.32,1.25C203.15,206.75,203.56,206.64,204.09,206.12z"/>
			</g>
			<g class="st10">
				<path class="st11" d="M84.06,89.98l1.71,1.71l-0.92,0.92l-2.89-2.89l0.79-0.79l6.84-4.18l1.17,1.17L84.06,89.98z"/>
				<path class="st11" d="M86.75,82.67c-0.04,0.62-0.34,1.2-0.89,1.76l-2.82,2.82c-0.58,0.58-1.17,0.89-1.78,0.94
					c-0.61,0.05-1.2-0.21-1.76-0.77c-0.56-0.56-0.81-1.14-0.77-1.75c0.05-0.61,0.36-1.2,0.94-1.78l2.82-2.82
					c0.55-0.55,1.14-0.85,1.76-0.89c0.62-0.04,1.2,0.21,1.74,0.75C86.54,81.47,86.8,82.06,86.75,82.67z M83.69,82.31l-2.78,2.78
					c-0.23,0.23-0.4,0.46-0.49,0.67c-0.1,0.22-0.05,0.42,0.14,0.6c0.2,0.2,0.4,0.25,0.61,0.15c0.21-0.1,0.43-0.26,0.67-0.5
					l2.78-2.78c0.52-0.52,0.63-0.94,0.32-1.25C84.63,81.68,84.21,81.78,83.69,82.31z"/>
			</g>
		</g>
		<g class="st9">
			<g class="st10">
				<path class="st12" d="M176.95,73.31c-0.58,0.16-1.26,0.08-2.05-0.25l-0.28-0.12l0.65-1.56l0.27,0.11
					c0.42,0.17,0.74,0.24,0.97,0.23c0.22-0.02,0.39-0.15,0.49-0.4c0.1-0.25,0.08-0.46-0.07-0.62c-0.15-0.17-0.43-0.34-0.85-0.51
					c-0.44-0.18-0.79-0.25-1.06-0.21c-0.27,0.04-0.48,0.23-0.63,0.58c-0.01,0.01-0.05,0.1-0.13,0.27l-1.15-0.48l0.1-0.24
					c0.15-0.36,0.16-0.64,0.03-0.86c-0.13-0.21-0.42-0.41-0.85-0.59c-0.35-0.15-0.63-0.21-0.84-0.18c-0.21,0.03-0.37,0.17-0.47,0.42
					c-0.1,0.24-0.08,0.45,0.07,0.61c0.15,0.17,0.4,0.33,0.75,0.48l0.36,0.15l-0.65,1.56l-0.45-0.19c-0.72-0.3-1.19-0.73-1.42-1.28
					c-0.23-0.55-0.2-1.17,0.09-1.87c0.29-0.7,0.71-1.17,1.25-1.39c0.54-0.23,1.17-0.19,1.88,0.11c0.47,0.2,0.82,0.46,1.07,0.79
					c0.24,0.33,0.34,0.66,0.3,1c0.55-0.58,1.34-0.66,2.37-0.22c0.79,0.33,1.34,0.77,1.64,1.31c0.3,0.54,0.29,1.19-0.03,1.96
					C177.98,72.68,177.53,73.15,176.95,73.31z"/>
				<path class="st12" d="M179.2,67.96c-0.59,0.2-1.24,0.14-1.97-0.16l-3.68-1.54c-0.75-0.31-1.27-0.74-1.54-1.29
					c-0.28-0.55-0.26-1.19,0.05-1.92c0.31-0.73,0.75-1.19,1.33-1.37c0.58-0.19,1.25-0.12,2,0.19l3.68,1.54
					c0.72,0.3,1.21,0.73,1.49,1.29c0.27,0.56,0.26,1.19-0.03,1.9C180.23,67.31,179.79,67.77,179.2,67.96z M178.38,64.99l-3.62-1.52
					c-0.3-0.13-0.58-0.19-0.81-0.2c-0.24-0.01-0.4,0.11-0.51,0.35c-0.11,0.26-0.08,0.46,0.09,0.62c0.17,0.16,0.41,0.3,0.72,0.43
					l3.62,1.52c0.68,0.29,1.11,0.23,1.28-0.18C179.32,65.62,179.06,65.28,178.38,64.99z"/>
			</g>
			<g class="st10">
				<path class="st12" d="M110.86,215c0.58-0.16,1.26-0.08,2.05,0.25l0.28,0.12l-0.65,1.56l-0.27-0.11
					c-0.42-0.17-0.74-0.24-0.97-0.23c-0.22,0.02-0.39,0.15-0.49,0.4c-0.1,0.25-0.08,0.46,0.07,0.62c0.15,0.17,0.43,0.34,0.85,0.51
					c0.44,0.18,0.79,0.25,1.06,0.21c0.27-0.04,0.48-0.23,0.63-0.58c0.01-0.01,0.05-0.1,0.12-0.27l1.15,0.48l-0.1,0.24
					c-0.15,0.36-0.16,0.65-0.03,0.86c0.13,0.21,0.42,0.41,0.85,0.59c0.35,0.15,0.63,0.21,0.84,0.18c0.21-0.03,0.37-0.17,0.47-0.42
					c0.1-0.24,0.08-0.45-0.07-0.61c-0.15-0.16-0.4-0.33-0.75-0.48l-0.37-0.15l0.65-1.56l0.45,0.19c0.72,0.3,1.19,0.73,1.42,1.27
					c0.23,0.55,0.2,1.17-0.09,1.87c-0.29,0.7-0.71,1.17-1.25,1.4c-0.54,0.23-1.17,0.19-1.88-0.11c-0.47-0.2-0.82-0.46-1.07-0.79
					c-0.24-0.33-0.34-0.66-0.3-1c-0.55,0.58-1.34,0.66-2.37,0.22c-0.79-0.33-1.34-0.77-1.64-1.31c-0.3-0.54-0.29-1.19,0.03-1.96
					C109.83,215.64,110.28,215.17,110.86,215z"/>
				<path class="st12" d="M108.61,220.35c0.59-0.2,1.24-0.14,1.97,0.16l3.68,1.54c0.75,0.31,1.26,0.74,1.54,1.29
					c0.28,0.54,0.26,1.19-0.05,1.92c-0.31,0.73-0.75,1.19-1.33,1.37c-0.58,0.19-1.25,0.12-2-0.19l-3.68-1.54
					c-0.72-0.3-1.21-0.73-1.49-1.29c-0.27-0.56-0.26-1.19,0.03-1.9C107.58,221.01,108.02,220.55,108.61,220.35z M109.43,223.33
					l3.62,1.52c0.3,0.13,0.57,0.19,0.81,0.2c0.23,0.01,0.4-0.11,0.51-0.35c0.11-0.26,0.08-0.46-0.09-0.62
					c-0.17-0.16-0.41-0.3-0.72-0.43l-3.62-1.52c-0.68-0.29-1.11-0.23-1.28,0.18C108.49,222.7,108.75,223.04,109.43,223.33z"/>
			</g>
			<g class="st10">
				<path class="st12" d="M209.49,175.41c-0.23-0.33-0.32-0.7-0.28-1.12c0.04-0.41,0.17-0.89,0.4-1.44l1.52,0.64
					c-0.2,0.47-0.3,0.84-0.3,1.09c0,0.25,0.13,0.43,0.38,0.54c0.2,0.08,0.38,0.08,0.53-0.02c0.15-0.1,0.29-0.26,0.41-0.48
					c0.12-0.23,0.27-0.56,0.46-0.99c0.21-0.5,0.32-0.89,0.33-1.18c0.01-0.29-0.12-0.49-0.41-0.61c-0.36-0.15-0.7,0-1.01,0.45
					l-1.35-0.56l2.07-4.62l3.77,1.58l-0.56,1.35l-2.5-1.05l-0.84,1.78c0.14-0.08,0.35-0.1,0.61-0.09c0.26,0.02,0.52,0.08,0.78,0.19
					c0.56,0.24,0.89,0.64,0.99,1.21c0.1,0.57-0.03,1.27-0.37,2.09c-0.27,0.65-0.56,1.16-0.85,1.55c-0.29,0.38-0.66,0.63-1.08,0.74
					c-0.43,0.11-0.94,0.04-1.53-0.21C210.11,176.02,209.72,175.74,209.49,175.41z"/>
				<path class="st12" d="M214.59,177.15c-0.2-0.59-0.14-1.24,0.16-1.97l1.54-3.68c0.31-0.75,0.74-1.26,1.29-1.54
					c0.54-0.28,1.19-0.26,1.92,0.05c0.73,0.31,1.19,0.75,1.37,1.33c0.18,0.58,0.12,1.25-0.19,2l-1.54,3.68
					c-0.3,0.72-0.73,1.21-1.29,1.49c-0.56,0.27-1.19,0.26-1.9-0.03C215.24,178.18,214.79,177.73,214.59,177.15z M217.57,176.32
					l1.52-3.62c0.13-0.3,0.2-0.57,0.2-0.81c0.01-0.24-0.11-0.4-0.35-0.51c-0.26-0.11-0.46-0.08-0.62,0.09
					c-0.16,0.17-0.3,0.41-0.43,0.72l-1.52,3.62c-0.29,0.68-0.23,1.11,0.18,1.28C216.94,177.27,217.28,177.01,217.57,176.32z"/>
				<path class="st12" d="M220.1,179.45c-0.2-0.59-0.14-1.24,0.16-1.97l1.54-3.68c0.31-0.75,0.74-1.26,1.29-1.54
					c0.54-0.28,1.19-0.26,1.92,0.05c0.73,0.31,1.19,0.75,1.37,1.33c0.18,0.58,0.12,1.25-0.19,2l-1.54,3.68
					c-0.3,0.72-0.73,1.21-1.29,1.49c-0.56,0.27-1.19,0.26-1.9-0.03C220.75,180.49,220.3,180.04,220.1,179.45z M223.07,178.63
					l1.52-3.62c0.13-0.3,0.19-0.57,0.2-0.81c0.01-0.24-0.11-0.4-0.35-0.51c-0.26-0.11-0.46-0.08-0.62,0.09
					c-0.16,0.17-0.3,0.41-0.43,0.72l-1.52,3.62c-0.29,0.68-0.23,1.11,0.18,1.28C222.45,179.57,222.79,179.31,223.07,178.63z"/>
			</g>
			<g class="st10">
				<path class="st12" d="M68.82,116.49c0.07-0.01,0.19-0.01,0.36,0c0.16,0.01,0.29,0.02,0.37,0.02c0.34,0.03,0.55,0.04,0.64,0.03
					l-0.49,1.17c-0.27,0-0.61,0.02-1.01,0.06c-0.4,0.04-0.7,0.11-0.9,0.2l-1.23-0.51l3.44-8.22l1.57,0.66L68.82,116.49z"/>
				<path class="st12" d="M67.71,108.86c0.2,0.59,0.14,1.24-0.16,1.97l-1.54,3.68c-0.31,0.75-0.74,1.26-1.29,1.54
					c-0.54,0.28-1.19,0.26-1.92-0.05c-0.73-0.31-1.19-0.75-1.37-1.33c-0.18-0.58-0.12-1.25,0.19-2l1.54-3.68
					c0.3-0.72,0.73-1.21,1.29-1.49c0.56-0.27,1.19-0.26,1.9,0.03C67.06,107.83,67.52,108.28,67.71,108.86z M64.74,109.69l-1.52,3.62
					c-0.13,0.3-0.19,0.57-0.2,0.81c-0.01,0.24,0.11,0.4,0.35,0.51c0.26,0.11,0.46,0.08,0.62-0.09c0.16-0.17,0.3-0.41,0.43-0.72
					l1.52-3.62c0.29-0.68,0.23-1.11-0.18-1.28C65.37,108.75,65.02,109,64.74,109.69z"/>
			</g>
			<g class="st10">
				<path class="st12" d="M211.45,112.75c-0.05,0.06-0.13,0.14-0.25,0.25c-0.12,0.11-0.21,0.19-0.28,0.25
					c-0.26,0.22-0.42,0.36-0.48,0.43l-0.48-1.17c0.19-0.19,0.42-0.44,0.67-0.76c0.26-0.31,0.42-0.57,0.5-0.78l1.23-0.5l3.38,8.25
					l-1.58,0.65L211.45,112.75z"/>
				<path class="st12" d="M217.9,117.64c-0.39-0.07-0.72-0.27-0.99-0.59c-0.27-0.32-0.51-0.75-0.74-1.3l1.53-0.63
					c0.19,0.48,0.38,0.8,0.56,0.98c0.18,0.18,0.39,0.21,0.65,0.11c0.2-0.08,0.33-0.21,0.36-0.39c0.04-0.17,0.02-0.39-0.05-0.63
					c-0.07-0.25-0.2-0.59-0.38-1.02c-0.21-0.5-0.4-0.86-0.6-1.07c-0.19-0.21-0.43-0.26-0.72-0.14c-0.37,0.15-0.5,0.49-0.4,1.03
					l-1.35,0.55l-1.81-4.73l3.79-1.55l0.55,1.35l-2.5,1.03l0.67,1.86c0.05-0.15,0.17-0.32,0.37-0.49c0.2-0.17,0.43-0.31,0.69-0.42
					c0.56-0.23,1.08-0.18,1.56,0.16c0.47,0.34,0.88,0.92,1.22,1.74c0.27,0.65,0.43,1.22,0.49,1.7c0.06,0.48-0.02,0.91-0.24,1.29
					c-0.22,0.38-0.63,0.69-1.23,0.94C218.76,117.63,218.29,117.71,217.9,117.64z"/>
				<path class="st12" d="M222.73,115.26c-0.55-0.28-0.98-0.78-1.28-1.5l-1.51-3.7c-0.31-0.75-0.37-1.42-0.18-2
					c0.19-0.58,0.65-1.02,1.39-1.33c0.73-0.3,1.37-0.31,1.91-0.03c0.54,0.28,0.97,0.8,1.28,1.55l1.51,3.7
					c0.29,0.72,0.34,1.37,0.14,1.96c-0.2,0.59-0.66,1.03-1.36,1.32C223.92,115.53,223.28,115.54,222.73,115.26z M224.25,112.58
					l-1.49-3.63c-0.13-0.31-0.27-0.54-0.43-0.72c-0.16-0.17-0.36-0.21-0.61-0.11c-0.26,0.11-0.38,0.27-0.38,0.5
					c0.01,0.23,0.08,0.5,0.2,0.82l1.49,3.63c0.28,0.69,0.63,0.95,1.03,0.78C224.47,113.69,224.53,113.27,224.25,112.58z"/>
			</g>
			<g class="st10">
				<path class="st12" d="M76.34,175.62c0.05-0.06,0.13-0.14,0.25-0.25c0.12-0.11,0.21-0.19,0.28-0.25
					c0.26-0.22,0.42-0.36,0.48-0.43l0.48,1.17c-0.19,0.19-0.42,0.44-0.67,0.76c-0.26,0.31-0.42,0.57-0.5,0.78l-1.23,0.5l-3.38-8.25
					l1.58-0.65L76.34,175.62z"/>
				<path class="st12" d="M69.89,170.73c0.39,0.07,0.72,0.27,0.99,0.59c0.27,0.32,0.51,0.75,0.74,1.3l-1.53,0.63
					c-0.19-0.48-0.38-0.8-0.56-0.98c-0.18-0.18-0.39-0.21-0.65-0.11c-0.2,0.08-0.33,0.21-0.36,0.39c-0.04,0.17-0.02,0.39,0.05,0.63
					c0.07,0.25,0.2,0.59,0.38,1.02c0.21,0.5,0.41,0.86,0.6,1.07c0.19,0.21,0.43,0.26,0.72,0.14c0.37-0.15,0.5-0.49,0.4-1.03
					l1.35-0.55l1.81,4.73l-3.79,1.55l-0.55-1.35l2.5-1.03l-0.67-1.86c-0.05,0.15-0.17,0.32-0.37,0.49c-0.2,0.17-0.43,0.31-0.68,0.42
					c-0.56,0.23-1.08,0.18-1.56-0.16c-0.47-0.34-0.88-0.92-1.22-1.74c-0.27-0.65-0.43-1.22-0.49-1.7s0.02-0.91,0.24-1.29
					c0.22-0.38,0.63-0.69,1.23-0.94C69.03,170.74,69.5,170.66,69.89,170.73z"/>
				<path class="st12" d="M65.06,173.11c0.55,0.28,0.98,0.78,1.28,1.5l1.51,3.69c0.31,0.75,0.37,1.42,0.18,2
					c-0.19,0.58-0.65,1.02-1.39,1.33c-0.73,0.3-1.37,0.31-1.91,0.03c-0.54-0.28-0.97-0.8-1.28-1.55l-1.51-3.69
					c-0.29-0.72-0.34-1.37-0.14-1.96c0.2-0.59,0.66-1.03,1.36-1.32C63.87,172.84,64.51,172.83,65.06,173.11z M63.54,175.79
					l1.49,3.63c0.13,0.31,0.27,0.54,0.43,0.72c0.16,0.17,0.36,0.21,0.61,0.11c0.26-0.11,0.38-0.27,0.38-0.5
					c-0.01-0.23-0.08-0.5-0.2-0.81l-1.49-3.63c-0.28-0.69-0.63-0.95-1.03-0.78C63.32,174.68,63.26,175.11,63.54,175.79z"/>
			</g>
			<g class="st10">
				<path class="st12" d="M170.71,217.54c0.34-0.57,0.92-1.02,1.75-1.36l2.93-1.2c0.9-0.37,1.66-0.49,2.28-0.36
					c0.63,0.12,1.11,0.6,1.45,1.43c0.3,0.73,0.34,1.33,0.13,1.8c-0.21,0.47-0.67,0.85-1.36,1.14l-0.14,0.06l-0.61-1.49
					c0.38-0.16,0.63-0.3,0.75-0.44c0.12-0.14,0.13-0.33,0.03-0.57c-0.07-0.17-0.17-0.28-0.31-0.32c-0.14-0.05-0.33-0.04-0.59,0.02
					c-0.25,0.06-0.6,0.18-1.03,0.36l-0.83,0.34c0.19,0.03,0.36,0.12,0.52,0.28c0.16,0.16,0.3,0.37,0.4,0.63
					c0.25,0.61,0.22,1.14-0.1,1.59c-0.31,0.45-0.84,0.82-1.56,1.12c-0.91,0.37-1.68,0.49-2.32,0.36c-0.64-0.14-1.12-0.6-1.44-1.39
					C170.35,218.77,170.37,218.11,170.71,217.54z M172.38,219.41c0.26-0.01,0.64-0.11,1.14-0.32c0.34-0.14,0.6-0.26,0.79-0.36
					c0.18-0.1,0.31-0.22,0.39-0.36c0.08-0.14,0.08-0.3,0-0.49c-0.06-0.14-0.15-0.25-0.27-0.33c-0.13-0.08-0.25-0.13-0.36-0.15
					l-1.31,0.54c-0.78,0.32-1.08,0.69-0.91,1.12C171.94,219.3,172.12,219.42,172.38,219.41z"/>
				<path class="st12" d="M172.81,223.02c0.28-0.55,0.78-0.98,1.5-1.28l3.7-1.51c0.75-0.31,1.42-0.37,2-0.18
					c0.58,0.19,1.02,0.65,1.33,1.39c0.3,0.73,0.31,1.37,0.03,1.91c-0.28,0.54-0.8,0.97-1.55,1.28l-3.7,1.51
					c-0.72,0.29-1.37,0.34-1.96,0.14c-0.59-0.2-1.03-0.66-1.32-1.36C172.55,224.21,172.54,223.57,172.81,223.02z M175.5,224.54
					l3.63-1.49c0.31-0.13,0.54-0.27,0.72-0.43c0.17-0.16,0.21-0.36,0.11-0.61c-0.11-0.26-0.27-0.38-0.5-0.38
					c-0.23,0.01-0.5,0.08-0.81,0.2l-3.63,1.49c-0.69,0.28-0.94,0.62-0.78,1.03C174.39,224.76,174.81,224.82,175.5,224.54z"/>
			</g>
			<g class="st10">
				<path class="st12" d="M119.03,76.98l-3.91-0.74l-0.3-0.06c-0.48-0.09-0.87-0.14-1.17-0.15c-0.3-0.01-0.6,0.04-0.9,0.16
					c-0.26,0.11-0.45,0.24-0.54,0.4c-0.1,0.16-0.11,0.34-0.03,0.53c0.11,0.28,0.3,0.43,0.56,0.45c0.26,0.02,0.58-0.05,0.96-0.2
					l0.38-0.15l0.63,1.54l-0.41,0.17c-0.77,0.32-1.46,0.39-2.06,0.21c-0.6-0.18-1.06-0.65-1.38-1.43c-0.29-0.71-0.33-1.33-0.1-1.86
					c0.22-0.53,0.68-0.93,1.37-1.22c0.42-0.17,0.83-0.25,1.23-0.23c0.4,0.02,0.92,0.09,1.55,0.22l0.22,0.04l3.03,0.61l-1-2.44
					l1.24-0.51l1.73,4.21L119.03,76.98z"/>
				<path class="st12" d="M117.24,70.88c-0.28,0.55-0.78,0.98-1.5,1.28l-3.7,1.51c-0.75,0.31-1.42,0.37-2,0.18
					c-0.58-0.19-1.02-0.65-1.33-1.39c-0.3-0.73-0.31-1.37-0.03-1.91c0.28-0.54,0.8-0.97,1.55-1.28l3.7-1.51
					c0.72-0.29,1.37-0.34,1.96-0.14c0.59,0.2,1.03,0.66,1.32,1.36C117.51,69.69,117.52,70.33,117.24,70.88z M114.55,69.36
					l-3.63,1.49c-0.31,0.13-0.54,0.27-0.72,0.43c-0.17,0.16-0.21,0.36-0.11,0.61c0.11,0.26,0.27,0.38,0.5,0.38
					c0.23-0.01,0.5-0.08,0.81-0.2l3.63-1.49c0.69-0.28,0.94-0.62,0.78-1.03C115.66,69.14,115.24,69.08,114.55,69.36z"/>
				<path class="st12" d="M114.98,65.35c-0.28,0.55-0.78,0.98-1.5,1.28l-3.7,1.51c-0.75,0.31-1.42,0.37-2,0.18
					c-0.58-0.19-1.02-0.65-1.33-1.39c-0.3-0.73-0.31-1.37-0.03-1.91c0.28-0.54,0.8-0.97,1.55-1.28l3.7-1.51
					c0.72-0.29,1.37-0.34,1.96-0.14c0.59,0.2,1.03,0.66,1.32,1.36C115.24,64.16,115.25,64.8,114.98,65.35z M112.29,63.83l-3.63,1.49
					c-0.31,0.13-0.54,0.27-0.72,0.43c-0.17,0.16-0.21,0.36-0.11,0.61c0.11,0.26,0.27,0.38,0.5,0.38c0.23-0.01,0.5-0.07,0.81-0.2
					l3.63-1.49c0.68-0.28,0.94-0.62,0.78-1.03C113.4,63.61,112.98,63.55,112.29,63.83z"/>
			</g>
		</g>
		<radialGradient id="SVGID_9_" cx="140.315" cy="147.685" r="103.4647" gradientUnits="userSpaceOnUse">
			<stop  offset="0.8119" style="stop-color:#FFFFFF"/>
			<stop  offset="0.8529" style="stop-color:#FCFCFC"/>
			<stop  offset="0.8816" style="stop-color:#F3F3F3"/>
			<stop  offset="0.9065" style="stop-color:#E4E4E4"/>
			<stop  offset="0.9293" style="stop-color:#CECECE"/>
			<stop  offset="0.9506" style="stop-color:#B1B1B1"/>
			<stop  offset="0.9708" style="stop-color:#8F8F8F"/>
			<stop  offset="0.9898" style="stop-color:#666666"/>
			<stop  offset="1" style="stop-color:#4D4D4D"/>
		</radialGradient>
		<circle class="st13" cx="144" cy="144" r="99.21"/>
		<radialGradient id="SVGID_10_" cx="106.4882" cy="158.5945" r="42.6142" gradientUnits="userSpaceOnUse">
			<stop  offset="0.086" style="stop-color:#FFC94C"/>
			<stop  offset="0.1989" style="stop-color:#A2621E"/>
			<stop  offset="0.219" style="stop-color:#965B1C"/>
			<stop  offset="0.2932" style="stop-color:#6E4314"/>
			<stop  offset="0.3725" style="stop-color:#4C2E0E"/>
			<stop  offset="0.4564" style="stop-color:#301D09"/>
			<stop  offset="0.5467" style="stop-color:#1B1005"/>
			<stop  offset="0.6463" style="stop-color:#0C0702"/>
			<stop  offset="0.7624" style="stop-color:#030201"/>
			<stop  offset="0.935" style="stop-color:#000000"/>
		</radialGradient>
		<circle class="st14" cx="106.49" cy="158.59" r="42.61"/>
		<radialGradient id="SVGID_11_" cx="181.7008" cy="129.4921" r="42.6142" gradientUnits="userSpaceOnUse">
			<stop  offset="0.086" style="stop-color:#FFC94C"/>
			<stop  offset="0.1989" style="stop-color:#A2621E"/>
			<stop  offset="0.219" style="stop-color:#965B1C"/>
			<stop  offset="0.2932" style="stop-color:#6E4314"/>
			<stop  offset="0.3725" style="stop-color:#4C2E0E"/>
			<stop  offset="0.4564" style="stop-color:#301D09"/>
			<stop  offset="0.5467" style="stop-color:#1B1005"/>
			<stop  offset="0.6463" style="stop-color:#0C0702"/>
			<stop  offset="0.7624" style="stop-color:#030201"/>
			<stop  offset="0.935" style="stop-color:#000000"/>
		</radialGradient>
		<circle class="st15" cx="181.7" cy="129.49" r="42.61"/>
		<radialGradient id="SVGID_12_" cx="126.8977" cy="101.1457" r="42.6142" gradientUnits="userSpaceOnUse">
			<stop  offset="0.086" style="stop-color:#FFC94C"/>
			<stop  offset="0.1989" style="stop-color:#A2621E"/>
			<stop  offset="0.219" style="stop-color:#965B1C"/>
			<stop  offset="0.2932" style="stop-color:#6E4314"/>
			<stop  offset="0.3725" style="stop-color:#4C2E0E"/>
			<stop  offset="0.4564" style="stop-color:#301D09"/>
			<stop  offset="0.5467" style="stop-color:#1B1005"/>
			<stop  offset="0.6463" style="stop-color:#0C0702"/>
			<stop  offset="0.7624" style="stop-color:#030201"/>
			<stop  offset="0.935" style="stop-color:#000000"/>
		</radialGradient>
		<circle class="st16" cx="126.9" cy="101.15" r="42.61"/>
		<radialGradient id="SVGID_13_" cx="160.5354" cy="186.9409" r="42.6142" gradientUnits="userSpaceOnUse">
			<stop  offset="0.086" style="stop-color:#FFC94C"/>
			<stop  offset="0.1989" style="stop-color:#A2621E"/>
			<stop  offset="0.219" style="stop-color:#965B1C"/>
			<stop  offset="0.2932" style="stop-color:#6E4314"/>
			<stop  offset="0.3725" style="stop-color:#4C2E0E"/>
			<stop  offset="0.4564" style="stop-color:#301D09"/>
			<stop  offset="0.5467" style="stop-color:#1B1005"/>
			<stop  offset="0.6463" style="stop-color:#0C0702"/>
			<stop  offset="0.7624" style="stop-color:#030201"/>
			<stop  offset="0.935" style="stop-color:#000000"/>
		</radialGradient>
		<circle class="st17" cx="160.54" cy="186.94" r="42.61"/>
		<radialGradient id="SVGID_14_" cx="156.756" cy="133.6496" r="23.5275" gradientUnits="userSpaceOnUse">
			<stop  offset="0" style="stop-color:#FFF1D1"/>
			<stop  offset="0.086" style="stop-color:#FFC94C"/>
			<stop  offset="0.1989" style="stop-color:#A2621E"/>
			<stop  offset="0.219" style="stop-color:#965B1C"/>
			<stop  offset="0.2932" style="stop-color:#6E4314"/>
			<stop  offset="0.3725" style="stop-color:#4C2E0E"/>
			<stop  offset="0.4564" style="stop-color:#301D09"/>
			<stop  offset="0.5467" style="stop-color:#1B1005"/>
			<stop  offset="0.6463" style="stop-color:#0C0702"/>
			<stop  offset="0.7624" style="stop-color:#030201"/>
			<stop  offset="0.935" style="stop-color:#000000"/>
		</radialGradient>
		<circle class="st18" cx="156.76" cy="133.65" r="23.53"/>
	</g>
	<g id="Choicer" class="st9">
		<g class="st10">
			<linearGradient id="SVGID_15_" gradientUnits="userSpaceOnUse" x1="137.0773" y1="127.061" x2="152.5261" y2="117.1397">
				<stop  offset="0" style="stop-color:#C8992E"/>
				<stop  offset="0.1507" style="stop-color:#B57E10"/>
				<stop  offset="0.4298" style="stop-color:#F9DF7B"/>
				<stop  offset="0.5909" style="stop-color:#FFF3A6"/>
				<stop  offset="0.7264" style="stop-color:#F9DF7B"/>
				<stop  offset="0.9257" style="stop-color:#B57E10"/>
				<stop  offset="0.9369" style="stop-color:#B98416"/>
				<stop  offset="1" style="stop-color:#CDA035"/>
			</linearGradient>
			<path class="st19" d="M151.95,133.15v-11.42c0-3.72-1.38-7.32-3.89-10.1l-4.16-4.62l-4.16,4.62c-2.5,2.78-3.89,6.37-3.89,10.1
				v11.42H151.95z"/>
			
				<linearGradient id="SVGID_16_" gradientUnits="userSpaceOnUse" x1="-1497.8226" y1="-3018.9663" x2="-1482.3971" y2="-3018.9663" gradientTransform="matrix(-1 0 0 -1 -1346.2 -2898.8765)">
				<stop  offset="0" style="stop-color:#C8992E"/>
				<stop  offset="0.1507" style="stop-color:#B57E10"/>
				<stop  offset="0.4298" style="stop-color:#F9DF7B"/>
				<stop  offset="0.5909" style="stop-color:#FFF3A6"/>
				<stop  offset="0.7264" style="stop-color:#F9DF7B"/>
				<stop  offset="0.9257" style="stop-color:#B57E10"/>
				<stop  offset="0.9369" style="stop-color:#B98416"/>
				<stop  offset="1" style="stop-color:#CDA035"/>
			</linearGradient>
			<path class="st20" d="M151.62,132.75v-11.06c0-3.61-1.33-7.09-3.73-9.78l-3.99-4.47l-3.99,4.47c-2.4,2.69-3.73,6.17-3.73,9.78
				v11.06H151.62z"/>
			<linearGradient id="SVGID_17_" gradientUnits="userSpaceOnUse" x1="136.9553" y1="130.5934" x2="151.9902" y2="116.7295">
				<stop  offset="0" style="stop-color:#C8992E"/>
				<stop  offset="0.1507" style="stop-color:#B57E10"/>
				<stop  offset="0.4298" style="stop-color:#F9DF7B"/>
				<stop  offset="0.5909" style="stop-color:#FFF3A6"/>
				<stop  offset="0.7264" style="stop-color:#F9DF7B"/>
				<stop  offset="0.9257" style="stop-color:#B57E10"/>
				<stop  offset="0.9369" style="stop-color:#B98416"/>
				<stop  offset="1" style="stop-color:#CDA035"/>
			</linearGradient>
			<path class="st21" d="M150.43,132.62v-10c0-3.26-1.12-6.41-3.15-8.84l-3.37-4.04l-3.37,4.04c-2.03,2.43-3.15,5.58-3.15,8.84v10
				H150.43z"/>
			<radialGradient id="SVGID_18_" cx="145.8396" cy="107.2834" r="27.8841" gradientUnits="userSpaceOnUse">
				<stop  offset="0" style="stop-color:#FF6F50"/>
				<stop  offset="0.1654" style="stop-color:#E9523C"/>
				<stop  offset="0.4067" style="stop-color:#CD2F24"/>
				<stop  offset="0.6334" style="stop-color:#B91512"/>
				<stop  offset="0.8377" style="stop-color:#AD0508"/>
				<stop  offset="1" style="stop-color:#A90004"/>
			</radialGradient>
			<path class="st22" d="M150.13,132.75v-9.77c0-3.19-1.07-6.26-3-8.64l-3.21-3.95l-3.21,3.95c-1.93,2.38-3,5.45-3,8.64v9.77H150.13
				z"/>
		</g>
		<linearGradient id="SVGID_19_" gradientUnits="userSpaceOnUse" x1="131.6069" y1="130.8103" x2="157.2995" y2="156.5029">
			<stop  offset="0" style="stop-color:#FBF89C"/>
			<stop  offset="0.0326" style="stop-color:#F9F498"/>
			<stop  offset="0.0681" style="stop-color:#F5EA8B"/>
			<stop  offset="0.1048" style="stop-color:#EED875"/>
			<stop  offset="0.1422" style="stop-color:#E3BF57"/>
			<stop  offset="0.1758" style="stop-color:#D8A335"/>
			<stop  offset="0.2232" style="stop-color:#CA9430"/>
			<stop  offset="0.314" style="stop-color:#A56D22"/>
			<stop  offset="0.3226" style="stop-color:#A16921"/>
			<stop  offset="0.3673" style="stop-color:#AA7324"/>
			<stop  offset="0.4421" style="stop-color:#C38C2D"/>
			<stop  offset="0.4957" style="stop-color:#D8A335"/>
			<stop  offset="0.564" style="stop-color:#E5C15A"/>
			<stop  offset="0.6426" style="stop-color:#F1DF7E"/>
			<stop  offset="0.7067" style="stop-color:#F8F194"/>
			<stop  offset="0.7478" style="stop-color:#FBF89C"/>
			<stop  offset="0.8083" style="stop-color:#FBF89C"/>
			<stop  offset="0.8256" style="stop-color:#F8F194"/>
			<stop  offset="0.8526" style="stop-color:#F1DF7E"/>
			<stop  offset="0.8856" style="stop-color:#E5C25A"/>
			<stop  offset="0.9145" style="stop-color:#D8A335"/>
			<stop  offset="0.9516" style="stop-color:#D9A738"/>
			<stop  offset="0.9853" style="stop-color:#DBB242"/>
			<stop  offset="1" style="stop-color:#DCB949"/>
		</linearGradient>
		<circle class="st23" cx="143.93" cy="143.13" r="18.59"/>
		<linearGradient id="SVGID_20_" gradientUnits="userSpaceOnUse" x1="143.9258" y1="162.0715" x2="143.9258" y2="124.4693">
			<stop  offset="0" style="stop-color:#FBF89C"/>
			<stop  offset="0.0326" style="stop-color:#F9F498"/>
			<stop  offset="0.0681" style="stop-color:#F5EA8B"/>
			<stop  offset="0.1048" style="stop-color:#EED875"/>
			<stop  offset="0.1422" style="stop-color:#E3BF57"/>
			<stop  offset="0.1758" style="stop-color:#D8A335"/>
			<stop  offset="0.2232" style="stop-color:#CA9430"/>
			<stop  offset="0.314" style="stop-color:#A56D22"/>
			<stop  offset="0.3226" style="stop-color:#A16921"/>
			<stop  offset="0.3673" style="stop-color:#AA7324"/>
			<stop  offset="0.4421" style="stop-color:#C38C2D"/>
			<stop  offset="0.4957" style="stop-color:#D8A335"/>
			<stop  offset="0.564" style="stop-color:#E5C15A"/>
			<stop  offset="0.6426" style="stop-color:#F1DF7E"/>
			<stop  offset="0.7067" style="stop-color:#F8F194"/>
			<stop  offset="0.7478" style="stop-color:#FBF89C"/>
			<stop  offset="0.8083" style="stop-color:#FBF89C"/>
			<stop  offset="0.8256" style="stop-color:#F8F194"/>
			<stop  offset="0.8526" style="stop-color:#F1DF7E"/>
			<stop  offset="0.8856" style="stop-color:#E5C25A"/>
			<stop  offset="0.9145" style="stop-color:#D8A335"/>
			<stop  offset="0.9516" style="stop-color:#D9A738"/>
			<stop  offset="0.9853" style="stop-color:#DBB242"/>
			<stop  offset="1" style="stop-color:#DCB949"/>
		</linearGradient>
		<circle class="st24" cx="143.93" cy="143.13" r="18.21"/>
		<linearGradient id="SVGID_21_" gradientUnits="userSpaceOnUse" x1="129.2796" y1="143.1292" x2="159.1077" y2="143.1292">
			<stop  offset="0" style="stop-color:#FBF89C"/>
			<stop  offset="0.0326" style="stop-color:#F9F498"/>
			<stop  offset="0.0681" style="stop-color:#F5EA8B"/>
			<stop  offset="0.1048" style="stop-color:#EED875"/>
			<stop  offset="0.1422" style="stop-color:#E3BF57"/>
			<stop  offset="0.1758" style="stop-color:#D8A335"/>
			<stop  offset="0.2232" style="stop-color:#CA9430"/>
			<stop  offset="0.314" style="stop-color:#A56D22"/>
			<stop  offset="0.3226" style="stop-color:#A16921"/>
			<stop  offset="0.3673" style="stop-color:#AA7324"/>
			<stop  offset="0.4421" style="stop-color:#C38C2D"/>
			<stop  offset="0.4957" style="stop-color:#D8A335"/>
			<stop  offset="0.564" style="stop-color:#E5C15A"/>
			<stop  offset="0.6426" style="stop-color:#F1DF7E"/>
			<stop  offset="0.7067" style="stop-color:#F8F194"/>
			<stop  offset="0.7478" style="stop-color:#FBF89C"/>
			<stop  offset="0.8083" style="stop-color:#FBF89C"/>
			<stop  offset="0.8256" style="stop-color:#F8F194"/>
			<stop  offset="0.8526" style="stop-color:#F1DF7E"/>
			<stop  offset="0.8856" style="stop-color:#E5C25A"/>
			<stop  offset="0.9145" style="stop-color:#D8A335"/>
			<stop  offset="0.9516" style="stop-color:#D9A738"/>
			<stop  offset="0.9853" style="stop-color:#DBB242"/>
			<stop  offset="1" style="stop-color:#DCB949"/>
		</linearGradient>
		<circle class="st25" cx="143.93" cy="143.13" r="15.04"/>
		<radialGradient id="SVGID_22_" cx="149.0828" cy="137.5806" r="14.3666" gradientUnits="userSpaceOnUse">
			<stop  offset="0" style="stop-color:#FF6F50"/>
			<stop  offset="0.1654" style="stop-color:#E9523C"/>
			<stop  offset="0.4067" style="stop-color:#CD2F24"/>
			<stop  offset="0.6334" style="stop-color:#B91512"/>
			<stop  offset="0.8377" style="stop-color:#AD0508"/>
			<stop  offset="1" style="stop-color:#A90004"/>
		</radialGradient>
		<path class="st26" d="M158.13,140.8c-1.32-8.1-8.79-11.08-7.64-10.47c-6.7-3.15-12.13-0.47-12.11-0.47
			c-13.8,5.51-10.62,26.31,4.29,27.61C152.11,158.26,159.64,149.99,158.13,140.8z"/>
		<linearGradient id="SVGID_23_" gradientUnits="userSpaceOnUse" x1="168.4206" y1="118.7252" x2="135.1187" y2="152.0271">
			<stop  offset="0" style="stop-color:#8A8A8A"/>
			<stop  offset="0.0437" style="stop-color:#808080"/>
			<stop  offset="0.2661" style="stop-color:#535353"/>
			<stop  offset="0.4794" style="stop-color:#2F2F2F"/>
			<stop  offset="0.6784" style="stop-color:#151515"/>
			<stop  offset="0.8576" style="stop-color:#050505"/>
			<stop  offset="1" style="stop-color:#000000"/>
		</linearGradient>
		<path class="st27" d="M134.1,136.67c5.17,0,10.18,2.08,13.83,5.73c2.85,2.85,4.74,6.53,5.44,10.47c2.59-2.46,4.2-5.94,4.2-9.79
			c0-7.46-6.05-13.51-13.51-13.51c-5.18,0-9.68,2.92-11.95,7.2C132.78,136.71,133.44,136.67,134.1,136.67z"/>
	</g>
</g>
</svg>
